<?xml version="1.0" encoding="UTF-8"?>
<svg
    xmlns="http://www.w3.org/2000/svg"
    xmlns:xlink="http://www.w3.org/1999/xlink"
    aria-hidden="true"
    role="img"
    class="iconify iconify--logos"
    width="40"
    height="40"
    preserveAspectRatio="xMidYMid meet"
    viewBox="0 0 960 960"
>
    <defs>
        <linearGradient id="gradient1" x1="0%" x2="100%" y1="0%" y2="100%">
            <stop offset="0%" stop-color="#00BFFF" />
            <stop offset="100%" stop-color="#1E90FF" />
        </linearGradient>
        <linearGradient id="gradient2" x1="0%" x2="100%" y1="0%" y2="100%">
            <stop offset="0%" stop-color="#FFEA83" />
            <stop offset="100%" stop-color="#FFA800" />
        </linearGradient>
    </defs>
    <path fill="url(#gradient1)" d="M290 776h277L706 965q19 9 31-2.5t12-29.5V776h63q24 0 42-18t18-42V314q0-24-18-42t-42-18H240q-24 0-42 18t-18 42v402q0 24 18 42t42 18zm0-390h499v60H240v-60zm0 90h499v60H240v-60zm0 90h499v60H240v-60z" />
</svg>
